<?xml version="1.0" standalone="no"?>
<!DOCTYPE svg PUBLIC "-//W3C//DTD SVG 20010904//EN"
 "http://www.w3.org/TR/2001/REC-SVG-20010904/DTD/svg10.dtd">
<svg version="1.0" xmlns="http://www.w3.org/2000/svg"
 width="700.000000pt" height="700.000000pt" viewBox="0 0 700.000000 700.000000"
 preserveAspectRatio="xMidYMid meet">
<metadata>
Created by potrace 1.11, written by Peter Selinger 2001-2013
</metadata>
<g transform="translate(0.000000,700.000000) scale(0.100000,-0.100000)"
fill="#000000" stroke="none">
<path d="M4623 6720 c-49 -11 -141 -59 -180 -93 -78 -69 -87 -91 -483 -1197
-21 -58 -59 -163 -85 -235 -26 -71 -55 -152 -64 -180 -10 -27 -30 -84 -45
-125 -15 -41 -41 -113 -57 -160 -17 -47 -36 -101 -44 -120 -14 -36 -123 -337
-205 -570 -125 -350 -193 -536 -199 -543 -5 -4 -46 50 -92 120 -91 139 -512
778 -529 803 -19 29 -273 415 -295 450 -130 204 -357 272 -554 165 -62 -34
-120 -90 -154 -148 -29 -49 -36 -71 -237 -687 -83 -256 -171 -523 -194 -595
-24 -71 -89 -272 -145 -445 -57 -173 -116 -353 -131 -400 -16 -47 -92 -281
-170 -520 -78 -239 -182 -556 -230 -705 -121 -366 -237 -725 -245 -755 -37
-142 2 -286 105 -390 192 -191 512 -143 637 95 20 38 133 361 147 420 1 6 23
73 48 150 25 77 117 356 203 620 86 264 169 518 185 565 15 47 83 254 150 460
67 206 139 427 160 490 21 63 70 215 110 338 39 122 75 222 78 222 4 0 59 -80
123 -178 64 -97 194 -294 288 -436 94 -143 171 -261 171 -263 0 -2 5 -9 11
-16 6 -7 86 -127 178 -267 93 -140 185 -271 205 -291 41 -40 134 -94 181 -104
209 -46 398 55 479 255 30 74 32 79 89 240 31 85 157 439 282 785 124 347 267
743 316 880 49 138 98 273 109 300 10 28 33 91 50 140 55 157 78 211 84 195 7
-20 166 -580 171 -603 2 -9 13 -47 25 -85 17 -57 155 -538 166 -582 2 -8 17
-62 34 -120 17 -58 42 -145 56 -195 14 -49 29 -103 35 -120 5 -16 75 -259 154
-540 80 -280 154 -541 166 -580 11 -38 31 -108 44 -155 13 -47 51 -182 85
-300 34 -118 63 -219 64 -225 3 -12 30 -106 55 -190 10 -33 26 -89 36 -125 9
-36 28 -99 40 -140 13 -41 32 -109 43 -150 72 -272 114 -391 156 -445 90 -115
204 -168 347 -160 172 9 313 123 363 293 14 51 17 197 3 219 -4 6 -23 68 -43
139 -58 209 -104 372 -247 869 -74 259 -137 479 -140 490 -3 11 -94 328 -202
705 -108 377 -198 692 -200 700 -2 8 -4 15 -5 15 -1 0 -3 9 -5 20 -4 21 -21
82 -36 125 -4 14 -38 131 -74 260 -62 221 -103 366 -125 435 -14 46 -261 916
-270 950 -11 44 -138 485 -149 520 -6 17 -37 125 -70 242 -33 117 -72 234 -86
260 -41 80 -134 159 -225 192 -41 15 -171 22 -217 11z"/>
</g>
</svg>
