<?xml version="1.0" standalone="no"?>
<!DOCTYPE svg PUBLIC "-//W3C//DTD SVG 20010904//EN"
 "http://www.w3.org/TR/2001/REC-SVG-20010904/DTD/svg10.dtd">
<svg version="1.0" xmlns="http://www.w3.org/2000/svg"
 width="260.000000pt" height="260.000000pt" viewBox="0 0 260.000000 260.000000"
 preserveAspectRatio="xMidYMid meet">
<metadata>
Created by potrace 1.11, written by Peter Selinger 2001-2013
</metadata>
<g transform="translate(0.000000,260.000000) scale(0.100000,-0.100000)"
fill="#000000" stroke="none">
<path d="M2282 2320 c-76 -34 -135 -81 -252 -201 -132 -134 -125 -126 -193
-223 -29 -41 -99 -137 -157 -214 -58 -77 -134 -181 -168 -231 -35 -50 -65 -91
-67 -91 -1 0 17 96 41 213 24 116 47 226 49 242 3 17 13 66 22 109 21 107 22
142 5 201 -32 113 -112 176 -227 178 -51 2 -72 -4 -126 -31 -161 -82 -373
-296 -551 -557 -111 -163 -199 -316 -316 -550 -87 -174 -97 -197 -165 -370
-112 -286 -130 -384 -83 -455 35 -54 98 -74 172 -56 24 6 84 64 84 80 0 15
138 377 193 506 5 14 11 30 13 35 13 56 205 447 299 610 150 261 302 436 398
461 23 5 27 3 28 -17 3 -55 -1 -95 -17 -184 -13 -76 -89 -393 -124 -520 -21
-77 -48 -175 -59 -218 -12 -42 -30 -112 -42 -155 -11 -42 -22 -84 -24 -92 -2
-8 -18 -71 -35 -140 -58 -233 -32 -322 93 -322 70 0 108 46 191 232 65 144
286 514 376 630 37 47 100 135 141 195 142 212 222 312 376 474 71 74 73 75
73 46 0 -17 -16 -104 -36 -195 -19 -91 -39 -185 -44 -210 -5 -25 -21 -101 -35
-170 -15 -69 -29 -136 -32 -150 -2 -14 -18 -86 -34 -160 -16 -74 -32 -146 -34
-160 -3 -14 -7 -38 -11 -55 -3 -16 -16 -81 -30 -144 -29 -137 -24 -171 38
-233 37 -37 44 -40 83 -35 82 9 133 73 159 199 18 90 21 104 46 250 12 64 22
125 24 135 2 10 7 38 11 63 4 25 9 54 11 65 10 49 34 194 39 235 3 25 8 52 10
60 2 8 6 33 10 55 3 22 8 51 10 65 2 14 9 54 14 90 6 36 13 76 16 90 3 14 8
41 10 60 7 50 24 144 42 227 19 93 14 234 -10 283 -33 69 -117 89 -205 50z"/>
</g>
</svg>
